{
  "accessors": [
    {
      "bufferView": 2,
      "componentType": 5126,
      "count": 3849,
      "max": [
        1.1523230075836182,
        1.1242940425872803,
        9.210077285766602
      ],
      "min": [
        -1.1543159484863281,
        0.10377400368452072,
        -8.052228927612305
      ],
      "type": "VEC3"
    },
    {
      "bufferView": 2,
      "byteOffset": 46188,
      "componentType": 5126,
      "count": 3849,
      "max": [
        0.9999854564666748,
        0.999991774559021,
        0.7570191025733948
      ],
      "min": [
        -0.9999962449073792,
        -1.0,
        -0.9975979924201965
      ],
      "type": "VEC3"
    },
    {
      "bufferView": 3,
      "componentType": 5126,
      "count": 3849,
      "max": [
        1.0,
        0.9999896287918091,
        0.9999914765357971,
        1.0
      ],
      "min": [
        -0.9999997615814209,
        -0.9999896287918091,
        -0.9998941421508789,
        1.0
      ],
      "type": "VEC4"
    },
    {
      "bufferView": 1,
      "componentType": 5126,
      "count": 3849,
      "max": [
        0.9950249791145325,
        0.9983279705047607
      ],
      "min": [
        0.0016720000421628356,
        0.061994001269340515
      ],
      "type": "VEC2"
    },
    {
      "bufferView": 0,
      "componentType": 5125,
      "count": 20400,
      "type": "SCALAR"
    }
  ],
  "asset": {
    "extras": {
      "author": "Ky2904 (https://sketchfab.com/Ky2904)",
      "license": "CC-BY-4.0 (http://creativecommons.org/licenses/by/4.0/)",
      "source": "https://sketchfab.com/3d-models/fork-e1496586325c4ffc8a8f5a6fb9fe5a9d",
      "title": "Fork"
    },
    "generator": "Sketchfab-15.42.0",
    "version": "2.0"
  },
  "bufferViews": [
    {
      "buffer": 0,
      "byteLength": 81600,
      "name": "floatBufferViews",
      "target": 34963
    },
    {
      "buffer": 0,
      "byteLength": 30792,
      "byteOffset": 81600,
      "byteStride": 8,
      "name": "floatBufferViews",
      "target": 34962
    },
    {
      "buffer": 0,
      "byteLength": 92376,
      "byteOffset": 112392,
      "byteStride": 12,
      "name": "floatBufferViews",
      "target": 34962
    },
    {
      "buffer": 0,
      "byteLength": 61584,
      "byteOffset": 204768,
      "byteStride": 16,
      "name": "floatBufferViews",
      "target": 34962
    }
  ],
  "buffers": [
    {
      "byteLength": 266352,
      "uri": "scene.bin"
    }
  ],
  "images": [
    {
      "uri": "textures/Fork_baseColor.jpeg"
    },
    {
      "uri": "textures/Fork_metallicRoughness.png"
    },
    {
      "uri": "textures/Fork_normal.png"
    }
  ],
  "materials": [
    {
      "doubleSided": true,
      "name": "Fork",
      "normalTexture": {
        "index": 2
      },
      "occlusionTexture": {
        "index": 1
      },
      "pbrMetallicRoughness": {
        "baseColorTexture": {
          "index": 0
        },
        "metallicRoughnessTexture": {
          "index": 1
        }
      }
    }
  ],
  "meshes": [
    {
      "name": "defaultMaterial",
      "primitives": [
        {
          "attributes": {
            "NORMAL": 1,
            "POSITION": 0,
            "TANGENT": 2,
            "TEXCOORD_0": 3
          },
          "indices": 4,
          "material": 0,
          "mode": 4
        }
      ]
    }
  ],
  "nodes": [
    {
      "children": [
        1
      ],
      "matrix": [
        1.0,
        0.0,
        0.0,
        0.0,
        0.0,
        0.9999867677688599,
        -0.005139875225722568,
        0.0,
        0.0,
        0.005139875225722568,
        0.9999867677688599,
        0.0,
        0.0,
        0.0,
        0.0,
        1.0
      ],
      "name": "Sketchfab_model"
    },
    {
      "children": [
        2
      ],
      "matrix": [
        1.0,
        0.0,
        0.0,
        0.0,
        0.0,
        -4.371139006309477e-08,
        0.999999999999999,
        0.0,
        0.0,
        -0.999999999999999,
        -4.371139006309477e-08,
        0.0,
        0.0,
        0.0,
        0.0,
        1.0
      ],
      "name": "Collada visual scene group"
    },
    {
      "children": [
        3
      ],
      "name": "fork"
    },
    {
      "mesh": 0,
      "name": "defaultMaterial"
    }
  ],
  "samplers": [
    {
      "magFilter": 9729,
      "minFilter": 9987,
      "wrapS": 10497,
      "wrapT": 10497
    }
  ],
  "scene": 0,
  "scenes": [
    {
      "name": "Sketchfab_Scene",
      "nodes": [
        0
      ]
    }
  ],
  "textures": [
    {
      "sampler": 0,
      "source": 0
    },
    {
      "sampler": 0,
      "source": 1
    },
    {
      "sampler": 0,
      "source": 2
    }
  ]
}
